# xmcd CD database file generated by OrangeCD 5.2
#
# Track frame offsets:
#	150
#	1125
#	15045
#	28570
#	39455
#	40027
#	49940
#	62450
#	77630
#	89425
#	93205
#	106140
#	119897
#	130532
#	136840
#	150455
#	160612
#	172905
#	183715
#	192270
#	205775
#	209752
#	223407
#	233042
#	243327
#	254652
#	266762
#	268525
#	279752
#	290825
#	300945
#
# Disc length: 4184 seconds
#
# Revision: 4
# Processed by: cddbd v1.5.1PL0 Copyright (c) Steve Scherf et al.
# Submitted via: OrangeCD 5.2
#
DISCID=a310561f
DTITLE=SAR - Sam Cooke's SAR Records Story   Disc 1 
DYEAR=1994
DGENRE=R&B Compilation
TTITLE0=The Soul Stirrers - Wade In The Water 
TTITLE1=The Soul Stirrers - Wade In The Water
TTITLE2=The Soul Stirrers - I'm A Pilgrim
TTITLE3=The Soul Stirrers - Praying Ground
TTITLE4=R. H. Harris and His Gospel Paraders - Somebody 
TTITLE5=R. H. Harris and His Gospel Paraders - Somebody
TTITLE6=R. H. Harris and His Gospel Paraders - Sometimes
TTITLE7=The Soul Stirrers - Amazing Grace
TTITLE8=R. H. Harris and His Gospel Paraders - Pass Me Not
TTITLE9=The Soul Stirrers - Oh Mary, Don't You Weep
TTITLE10=The Soul Stirrers - Oh Mary, Don't You Weep
TTITLE11=The Soul Stirrers - Since I Met The Savior
TTITLE12=The Soul Stirrers - God Is Standing By
TTITLE13=The Soul Stirrers - Lead Me To The Calvary-Rehearsal
TTITLE14=The Soul Stirrers - Listen To The Angels Sing
TTITLE15=The Soul Stirrers - Don't Leave Me Alone
TTITLE16=The Soul Stirrers - Stand By Me Father
TTITLE17=The Soul Stirrers - Jesus Be A Fence Around Me
TTITLE18=The Soul Stirrers - Lead Me Jesus
TTITLE19=The Soul Stirrers - Free At Last
TTITLE20=The Soul Stirrers - Looking Back 
TTITLE21=The Soul Stirrers - Looking Back
TTITLE22=R. H. Harris and His Gospel Paraders - Born Again
TTITLE23=R. H. Harris and His Gospel Paraders - Wait On Jesus
TTITLE24=The Soul Stirrers - Times Bring About A Change
TTITLE25=The Soul Stirrers - Must Jesus Bear The Cross Alone
TTITLE26=The Womack Brothers - Yield No Temptation
TTITLE27=The Womack Brothers - Yield No Temptation
TTITLE28=The Womack Brothers - Couldn't Hear Nobody Pray
TTITLE29=The Womack Brothers - Somewhere There's A God
TTITLE30=Sam Cooke - That's Heaven To Me
EXTD=Originally Released September 1994\nRepackaged In CD-Sized Slipcase August
EXTD=14, 2001\n\nAMG EXPERT REVIEW: Sam Cooke's SAR Records Story is a double-
EXTD=disc set presenting material recorded for the legendary soul singer's own 
EXTD=SAR label from 1959-1965, much of it produced by Cooke himself and includi
EXTD=ng a few of his rough, unreleased demos. The first disc covers the label's
EXTD=religious side, with a multitude of cuts from Cooke's former group the So
EXTD=ul Stirrers (now with Jimmie Outler 
EXTT0=
EXTT1=
EXTT2=
EXTT3=
EXTT4=
EXTT5=
EXTT6=
EXTT7=
EXTT8=
EXTT9=
EXTT10=
EXTT11=
EXTT12=
EXTT13=
EXTT14=
EXTT15=
EXTT16=
EXTT17=
EXTT18=
EXTT19=
EXTT20=
EXTT21=
EXTT22=
EXTT23=
EXTT24=
EXTT25=
EXTT26=
EXTT27=
EXTT28=
EXTT29=
EXTT30=
PLAYORDER=
